<svg width="169" height="54" viewBox="0 0 169 54" fill="none" xmlns="http://www.w3.org/2000/svg">
<path d="M21.024 29.596C21.024 30.316 20.976 30.964 20.88 31.54H6.3C6.42 32.98 6.924 34.108 7.812 34.924C8.7 35.74 9.792 36.148 11.088 36.148C12.96 36.148 14.292 35.344 15.084 33.736H20.52C19.944 35.656 18.84 37.24 17.208 38.488C15.576 39.712 13.572 40.324 11.196 40.324C9.276 40.324 7.548 39.904 6.012 39.064C4.5 38.2 3.312 36.988 2.448 35.428C1.608 33.868 1.188 32.068 1.188 30.028C1.188 27.964 1.608 26.152 2.448 24.592C3.288 23.032 4.464 21.832 5.976 20.992C7.488 20.152 9.228 19.732 11.196 19.732C13.092 19.732 14.784 20.14 16.272 20.956C17.784 21.772 18.948 22.936 19.764 24.448C20.604 25.936 21.024 27.652 21.024 29.596ZM15.804 28.156C15.78 26.86 15.312 25.828 14.4 25.06C13.488 24.268 12.372 23.872 11.052 23.872C9.804 23.872 8.748 24.256 7.884 25.024C7.044 25.768 6.528 26.812 6.336 28.156H15.804ZM40.0388 25.024V29.272H24.7748V25.024H40.0388Z" fill="#FF00FF"/>
<path d="M54.8 35.356L59.84 20.056H65.204L57.824 40H51.704L44.36 20.056H49.76L54.8 35.356ZM86.5748 29.596C86.5748 30.316 86.5268 30.964 86.4308 31.54H71.8508C71.9708 32.98 72.4748 34.108 73.3628 34.924C74.2508 35.74 75.3428 36.148 76.6388 36.148C78.5108 36.148 79.8428 35.344 80.6348 33.736H86.0708C85.4948 35.656 84.3908 37.24 82.7588 38.488C81.1268 39.712 79.1228 40.324 76.7468 40.324C74.8268 40.324 73.0988 39.904 71.5628 39.064C70.0508 38.2 68.8628 36.988 67.9988 35.428C67.1588 33.868 66.7388 32.068 66.7388 30.028C66.7388 27.964 67.1588 26.152 67.9988 24.592C68.8388 23.032 70.0148 21.832 71.5268 20.992C73.0388 20.152 74.7788 19.732 76.7468 19.732C78.6428 19.732 80.3348 20.14 81.8228 20.956C83.3348 21.772 84.4988 22.936 85.3148 24.448C86.1548 25.936 86.5748 27.652 86.5748 29.596ZM81.3548 28.156C81.3308 26.86 80.8628 25.828 79.9508 25.06C79.0388 24.268 77.9228 23.872 76.6028 23.872C75.3548 23.872 74.2988 24.256 73.4348 25.024C72.5948 25.768 72.0788 26.812 71.8868 28.156H81.3548ZM101.306 19.768C103.682 19.768 105.602 20.524 107.066 22.036C108.53 23.524 109.262 25.612 109.262 28.3V40H104.222V28.984C104.222 27.4 103.826 26.188 103.034 25.348C102.242 24.484 101.162 24.052 99.7935 24.052C98.4015 24.052 97.2975 24.484 96.4815 25.348C95.6895 26.188 95.2935 27.4 95.2935 28.984V40H90.2535V20.056H95.2935V22.54C95.9655 21.676 96.8175 21.004 97.8495 20.524C98.9055 20.02 100.058 19.768 101.306 19.768ZM119.922 24.196V33.844C119.922 34.516 120.078 35.008 120.39 35.32C120.726 35.608 121.278 35.752 122.046 35.752H124.386V40H121.218C116.97 40 114.846 37.936 114.846 33.808V24.196H112.47V20.056H114.846V15.124H119.922V20.056H124.386V24.196H119.922ZM136.867 40.324C134.947 40.324 133.219 39.904 131.683 39.064C130.147 38.2 128.935 36.988 128.047 35.428C127.183 33.868 126.751 32.068 126.751 30.028C126.751 27.988 127.195 26.188 128.083 24.628C128.995 23.068 130.231 21.868 131.791 21.028C133.351 20.164 135.091 19.732 137.011 19.732C138.931 19.732 140.671 20.164 142.231 21.028C143.791 21.868 145.015 23.068 145.903 24.628C146.815 26.188 147.271 27.988 147.271 30.028C147.271 32.068 146.803 33.868 145.867 35.428C144.955 36.988 143.707 38.2 142.123 39.064C140.563 39.904 138.811 40.324 136.867 40.324ZM136.867 35.932C137.779 35.932 138.631 35.716 139.423 35.284C140.239 34.828 140.887 34.156 141.367 33.268C141.847 32.38 142.087 31.3 142.087 30.028C142.087 28.132 141.583 26.68 140.575 25.672C139.591 24.64 138.379 24.124 136.939 24.124C135.499 24.124 134.287 24.64 133.303 25.672C132.343 26.68 131.863 28.132 131.863 30.028C131.863 31.924 132.331 33.388 133.267 34.42C134.227 35.428 135.427 35.932 136.867 35.932ZM158.6 40.324C156.968 40.324 155.504 40.036 154.208 39.46C152.912 38.86 151.88 38.056 151.112 37.048C150.368 36.04 149.96 34.924 149.888 33.7H154.964C155.06 34.468 155.432 35.104 156.08 35.608C156.752 36.112 157.58 36.364 158.564 36.364C159.524 36.364 160.268 36.172 160.796 35.788C161.348 35.404 161.624 34.912 161.624 34.312C161.624 33.664 161.288 33.184 160.616 32.872C159.968 32.536 158.924 32.176 157.484 31.792C155.996 31.432 154.772 31.06 153.812 30.676C152.876 30.292 152.06 29.704 151.364 28.912C150.692 28.12 150.356 27.052 150.356 25.708C150.356 24.604 150.668 23.596 151.292 22.684C151.94 21.772 152.852 21.052 154.028 20.524C155.228 19.996 156.632 19.732 158.24 19.732C160.616 19.732 162.512 20.332 163.928 21.532C165.344 22.708 166.124 24.304 166.268 26.32H161.444C161.372 25.528 161.036 24.904 160.436 24.448C159.86 23.968 159.08 23.728 158.096 23.728C157.184 23.728 156.476 23.896 155.972 24.232C155.492 24.568 155.252 25.036 155.252 25.636C155.252 26.308 155.588 26.824 156.26 27.184C156.932 27.52 157.976 27.868 159.392 28.228C160.832 28.588 162.02 28.96 162.956 29.344C163.892 29.728 164.696 30.328 165.368 31.144C166.064 31.936 166.424 32.992 166.448 34.312C166.448 35.464 166.124 36.496 165.476 37.408C164.852 38.32 163.94 39.04 162.74 39.568C161.564 40.072 160.184 40.324 158.6 40.324Z" fill="white"/>
<rect x="131" y="23" width="12" height="14" rx="6" fill="white"/>
</svg>
